<?xml version="1.0" encoding="UTF-8"?>
<!-- Generated by jsxcad -->
<!DOCTYPE svg PUBLIC "-//W3C//DTD SVG 1.1 Tiny//EN" "http://www.w3.org/Graphics/SVG/1.1/DTD/svg11-tiny.dtd">
<svg baseProfile="tiny" height="26.87454026281883mm" width="30.060067945969944mm" viewBox="-14.9498627691579 -24.879913142603076 30.060067945969944 26.87454026281883" version="1.1" stroke="black" stroke-width=".1" fill="none" xmlns="http://www.w3.org/2000/svg">
<path fill="#c7df66" stroke="#c7df66" d="M3.888801306157445 19.132117054186136 L3.7470230886074387 18.5309065936853 L3.71233267367499 18.38380190654148 L3.7123326736749895 21.21019784562777 L3.9250000000000007 22.112013536379028 L3.9250000000000007 19.28561759729273 z"/>
<path fill="#c7df66" stroke="#c7df66" d="M3.71233267367499 23.013829227130277 L3.0973764993808435 23.817919194676428 L3.097376499380844 20.991523255590135 L3.1157506724174375 20.967497985468015 L3.2020498907500605 20.854656878135472 L3.444702385714692 20.53737502138355 L3.6120206736128226 20.318596899771368 L3.7123326736749904 20.187433288043984 z"/>
<path fill="#c7df66" stroke="#c7df66" d="M0.7534876096223145 21.99033189760131 L0.07540042182020534 22.03009125872946 L-0.104948702382046 22.040665954855992 L-0.324123930978904 22.053517203516765 L-0.438633098447427 22.032998047558245 L-0.5284374348656559 22.016905805989694 L-1.3634578420549897 21.867276616096454 L-1.5766545417629045 21.8290734186769 L-1.7530980837343015 21.747502256662614 L-2.4742151683130538 21.414124464082473 L-2.658330168631033 21.329006729806697 L-2.7877833531108345 21.211315304416424 L-3.3168528896804585 20.73031556586488 L-3.4519344734854687 20.60750712197938 L-3.5203690392621705 20.466449125324782 L-3.7546225934864146 19.98360340703808 L-3.800058134175648 19.88995122595383 L-3.8714681158556847 19.742760272922947 L-3.8714681158556847 19.593621527681883 L-3.871468115855685 18.984097960174932 L-3.871468115855685 18.82847492166252 L-3.8030335500789834 18.687416925007923 L-3.523344455165507 18.110919025636967 L-3.5230475827028234 18.1103071092118 L-3.487219596438356 18.036458113323896 L-3.45193447348547 17.963728072606088 L-3.3224812890056685 17.846036647215815 L-2.793411752436045 17.365036908664273 L-2.6583301686310348 17.242228464778773 L-2.4818866266596378 17.16065730276448 L-1.7607695420808858 16.827279510184344 L-1.5766545417629063 16.742161775908563 L-1.3723410378761545 16.705550378381492 L-0.5373206306868207 16.555921188488252 L-0.3241239309789057 16.5177179910687 L-0.20500994052892074 16.524702190515185 L-0.11408100357358313 16.53003377103527 L0.5199379927202922 16.5672092120246 L0.7443553084307787 16.580367828289955 L0.963530537027637 16.593219076950728 L1.103330209251722 16.636611269600106 L1.156541477615342 16.653127428552548 L1.2439098508332416 16.68024555566845 L1.9453688000172666 16.897970256838246 L2.0343456758462346 16.92558764446074 L2.0897677627020825 16.942790015765482 L2.1467715206305242 16.960483319379275 L2.1916618957600735 16.989725123963613 L2.2226767024729757 17.00992831706464 L2.3018347441146183 17.06149224314643 L2.8372992910591277 17.4102964043593 L2.9355713966148302 17.474311322890465 L3.0544117959495467 17.55172452614488 L3.0973764993808417 17.579711938995327 L3.108869461735353 17.594739637086587 L3.1976884994430077 17.710875550722715 L3.6076592823057725 18.246935529086812 L3.712332673674989 18.38380190654148 L3.747023088607438 18.5309065936853 L3.8888013061574447 19.132117054186136 L3.925 19.28561759729273 L3.8903095850675515 19.432722284436554 L3.748531367517545 20.03393274493739 L3.7123326736749904 20.187433288043984 L3.612020673612825 20.318596899771368 L3.444702385714694 20.53737502138355 L3.202049890750061 20.85465687813547 L3.1157506724174384 20.967497985468015 L3.0973764993808444 20.991523255590135 L2.94231327589675 21.092532179357292 L2.308576623396537 21.50535125910133 L2.275957123428014 21.526599757046952 L2.222676702472976 21.561306877520824 L2.146771520630525 21.61075187520619 L2.0775263779872737 21.63224476229103 L2.044475823453316 21.64250327010217 L1.9537605800428202 21.67066022680801 L1.1649332576408944 21.91550305509371 L0.9635305370276368 21.978016117634738 z"/>
<path fill="#c7df66" stroke="#c7df66" d="M3.0973764993808426 20.991523255590135 L3.097376499380844 23.81791919467643 L2.1467715206305242 24.437147814292484 L2.1467715206305225 21.61075187520619 L2.2226767024729734 21.561306877520824 L2.2759571234280123 21.526599757046952 L2.3085766233965366 21.50535125910133 L2.9423132758967485 21.092532179357292 z"/>
<path fill="#c7df66" stroke="#c7df66" d="M1.1649332576408944 21.9155030550937 L1.95376058004282 21.670660226808003 L2.044475823453316 21.642503270102168 L2.0775263779872732 21.632244762291023 L2.146771520630525 21.610751875206184 L2.146771520630525 24.437147814292477 L0.9635305370276367 24.804412056721024 L0.9635305370276367 21.97801611763473 z"/>
<path fill="#c7df66" stroke="#c7df66" d="M-3.4519344734854696 23.433903061065674 L-3.4519344734854656 20.607507121979378 L-3.3168528896804563 20.73031556586488 L-2.7877833531108336 21.211315304416424 L-2.6583301686310317 21.329006729806693 L-2.658330168631031 24.15540266889299 z"/>
<path fill="#c7df66" stroke="#c7df66" d="M-0.32412393097890396 24.87991314260306 L-1.5766545417629045 24.655469357763195 L-1.5766545417629045 21.829073418676902 L-1.3634578420549894 21.867276616096454 L-0.5284374348656559 22.016905805989694 L-0.43863309844742693 22.032998047558245 L-0.32412393097890396 22.053517203516765 z"/>
<path fill="#c7df66" stroke="#c7df66" d="M-2.4742151683130533 21.41412446408247 L-1.7530980837343013 21.74750225666261 L-1.5766545417629045 21.8290734186769 L-1.5766545417629045 24.6554693577632 L-2.658330168631033 24.15540266889299 L-2.658330168631033 21.32900672980669 z"/>
<path fill="#c7df66" stroke="#c7df66" d="M0.9635305370276367 24.80441205672102 L-0.324123930978904 24.879913142603048 L-0.324123930978904 22.053517203516765 L-0.10494870238204598 22.040665954855996 L0.07540042182020534 22.03009125872946 L0.7534876096223145 21.99033189760131 L0.9635305370276367 21.978016117634738 z"/>
<path fill="#c7df66" stroke="#c7df66" d="M-3.487219596438358 18.036458113323896 L-3.5230475827028234 18.1103071092118 L-3.5233444551655064 18.110919025636967 L-3.803033550078984 18.687416925007923 L-3.8714681158556856 18.82847492166252 L-3.8714681158556874 21.65487086074881 L-3.4519344734854713 20.79012401169238 L-3.451934473485472 17.963728072606084 z"/>
<path fill="#c7df66" stroke="#c7df66" d="M-3.871468115855685 18.82847492166252 L-3.871468115855685 18.984097960174932 L-3.8714681158556847 19.593621527681886 L-3.8714681158556847 19.742760272922947 L-3.8714681158556847 22.56915621200924 L-3.871468115855685 21.65487086074881 z"/>
<path fill="#c7df66" stroke="#c7df66" d="M-3.451934473485468 23.433903061065674 L-3.8714681158556843 22.569156212009243 L-3.871468115855684 19.742760272922947 L-3.8000581341756465 19.88995122595383 L-3.7546225934864124 19.98360340703808 L-3.5203690392621683 20.466449125324786 L-3.4519344734854664 20.60750712197938 z"/>
<path fill="#c7df66" stroke="#c7df66" d="M-3.4519344734854736 17.963728072606084 L-3.451934473485473 20.79012401169238 L-2.658330168631036 20.068624403865066 L-2.658330168631036 17.242228464778773 L-2.7934117524360453 17.365036908664273 L-3.3224812890056716 17.846036647215815 z"/>
<path fill="#c7df66" stroke="#c7df66" d="M3.924999999999999 19.28561759729273 L3.925 22.112013536379024 L3.712332673674991 23.013829227130277 L3.7123326736749895 20.187433288043984 L3.7485313675175447 20.03393274493739 L3.8903095850675506 19.432722284436554 z"/>
<path fill="#c7df66" stroke="#c7df66" d="M-1.5766545417629063 16.742161775908563 L-1.7607695420808853 16.827279510184344 L-2.4818866266596378 17.16065730276448 L-2.6583301686310343 17.24222846477877 L-2.6583301686310343 20.06862440386506 L-1.5766545417629063 19.568557714994853 z"/>
<path fill="#c7df66" stroke="#c7df66" d="M-1.576654541762906 19.56855771499485 L-0.3241239309789057 19.344113930154986 L-0.3241239309789057 16.517717991068693 L-0.5373206306868207 16.555921188488245 L-1.3723410378761542 16.705550378381485 L-1.576654541762906 16.742161775908556 z"/>
<path fill="#c7df66" stroke="#c7df66" d="M0.9635305370276369 16.59321907695072 L0.7443553084307786 16.58036782828995 L0.5199379927202922 16.567209212024594 L-0.11408100357358311 16.530033771035264 L-0.20500994052892071 16.52470219051518 L-0.3241239309789057 16.517717991068693 L-0.3241239309789057 19.344113930154993 L0.9635305370276369 19.41961501603702 z"/>
<path fill="#c7df66" stroke="#c7df66" d="M3.7123326736749904 18.38380190654148 L3.607659282305773 18.246935529086816 L3.1976884994430104 17.71087555072271 L3.1088694617353547 17.594739637086587 L3.0973764993808426 17.579711938995327 L3.097376499380843 20.40610787808162 L3.712332673674991 21.210197845627775 z"/>
<path fill="#c7df66" stroke="#c7df66" d="M2.0897677627020825 16.942790015765482 L2.034345675846234 16.92558764446074 L1.9453688000172664 16.897970256838246 L1.2439098508332416 16.68024555566845 L1.156541477615342 16.653127428552548 L1.1033302092517219 16.636611269600106 L0.9635305370276368 16.593219076950728 L0.9635305370276368 19.41961501603702 L2.146771520630524 19.786879258465564 L2.146771520630524 16.960483319379275 z"/>
<path fill="#c7df66" stroke="#c7df66" d="M2.146771520630528 19.786879258465568 L3.097376499380846 20.40610787808162 L3.0973764993808452 17.579711938995327 L3.0544117959495507 17.55172452614488 L2.935571396614831 17.47431132289047 L2.8372992910591304 17.410296404359304 L2.30183474411462 17.061492243146432 L2.222676702472978 17.009928317064638 L2.1916618957600766 16.989725123963613 L2.146771520630527 16.960483319379275 z"/>
<path fill="#c7df66" stroke="#c7df66" d="M3.925 22.112013536379028 L3.712332673674989 21.210197845627775 L3.0973764993808417 20.40610787808162 L2.1467715206305242 19.786879258465568 L0.963530537027637 19.419615016037024 L-0.3241239309789057 19.344113930154993 L-1.5766545417629063 19.568557714994856 L-2.6583301686310348 20.068624403865066 L-3.45193447348547 20.79012401169238 L-3.871468115855685 21.654870860748815 L-3.8714681158556847 22.56915621200924 L-3.4519344734854687 23.433903061065674 L-2.658330168631033 24.15540266889299 L-1.5766545417629045 24.6554693577632 L-0.324123930978904 24.87991314260306 L0.9635305370276368 24.804412056721027 L2.146771520630525 24.437147814292487 L3.0973764993808444 23.81791919467643 L3.7123326736749904 23.013829227130277 z"/>
<path fill="#c7df66" stroke="#c7df66" d="M5.499999999999999 19.28561759729273 L5.296045080412895 20.335633761993698 L5.296045080412895 14.682841883821112 L5.401312135683659 14.140898056878676 L5.499999999999999 13.632825719120143 z"/>
<path fill="#c7df66" stroke="#c7df66" d="M-0.3753332735056969 15.402812291006509 L1.1190080717894784 15.47514160731285 L1.1190080717894784 9.822349729140257 L0.3477351193790655 9.785018469111177 L-0.3753332735056969 9.750020412833916 z"/>
<path fill="#c7df66" stroke="#c7df66" d="M4.699306725005687 15.654983153090534 L5.007300714893277 15.153232820564382 L5.296045080412895 14.682841883821112 L5.296045080412896 20.335633761993698 L4.699306725005686 21.307775031263123 z"/>
<path fill="#c7df66" stroke="#c7df66" d="M3.7540422877025956 22.129942134409674 L3.7540422877025943 16.477150256237085 L4.241920706955804 16.052805944935642 L4.699306725005684 15.654983153090535 L4.699306725005686 21.307775031263123 z"/>
<path fill="#c7df66" stroke="#c7df66" d="M3.1619368456794064 16.772900206631054 L3.7540422877025965 16.47715025623709 L3.7540422877025965 22.129942134409674 L2.5303577075213366 22.741158698557204 L2.5303577075213366 17.088366820384618 z"/>
<path fill="#c7df66" stroke="#c7df66" d="M1.1190080717894857 23.096093587272616 L1.1190080717894857 17.443301709100027 L1.8474465934575377 17.26010950847272 L2.374487066157878 17.1275661281576 L2.5303577075213366 17.088366820384618 L2.5303577075213366 22.741158698557204 z"/>
<path fill="#c7df66" stroke="#c7df66" d="M0.39593967890472326 17.478299765377283 L1.1190080717894857 17.44330170910002 L1.1190080717894857 23.096093587272616 L-0.37533327350569007 23.168422903578957 L-0.37533327350569007 17.515631025406364 z"/>
<path fill="#c7df66" stroke="#c7df66" d="M-1.8418378669404234 17.299990434797802 L-1.0849322703289481 17.411288804144156 L-0.37533327350569007 17.515631025406364 L-0.37533327350569007 23.168422903578954 L-1.8418378669404234 22.952782312970392 z"/>
<path fill="#c7df66" stroke="#c7df66" d="M-3.1717417716317686 16.812373013389717 L-2.4853397563072033 17.06404652121325 L-1.8418378669404232 17.29999043479781 L-1.8418378669404232 22.952782312970395 L-3.1717417716317686 22.465164891562306 z"/>
<path fill="#c7df66" stroke="#c7df66" d="M-4.266412098874306 16.088943114626666 L-3.701420962232997 16.46232628818179 L-3.1717417716317664 16.812373013389717 L-3.1717417716317637 22.465164891562303 L-4.266412098874306 21.741734992799252 z"/>
<path fill="#c7df66" stroke="#c7df66" d="M-5.044662158279991 15.183354224628335 L-4.642984708264154 15.650754942046827 L-4.266412098874307 16.088943114626666 L-4.266412098874308 21.741734992799255 L-5.0446621582799915 20.83614610280092 z"/>
<path fill="#c7df66" stroke="#c7df66" d="M-5.448772703199818 14.16276972857239 L-5.240199518725069 14.689523016859328 L-5.04466215827999 15.183354224628333 L-5.04466215827999 20.83614610280092 L-5.448772703199817 19.81556160674498 z"/>
<path fill="#c7df66" stroke="#c7df66" d="M-5.448772703199818 13.102881709667901 L-5.448772703199818 13.649920687166993 L-5.448772703199818 14.16276972857239 L-5.448772703199818 19.81556160674498 L-5.448772703199818 18.75567358784049 z"/>
<path fill="#c7df66" stroke="#c7df66" d="M-5.044662158279992 12.082297213611957 L-5.253235342754741 12.609050501898896 L-5.448772703199818 13.1028817096679 L-5.448772703199819 18.755673587840487 L-5.0446621582799915 17.735089091784545 z"/>
<path fill="#c7df66" stroke="#c7df66" d="M-4.266412098874312 11.176708323613624 L-4.668089548890148 11.644109041032118 L-5.044662158279992 12.082297213611957 L-5.044662158279994 17.735089091784545 L-4.266412098874314 16.82950020178621 z"/>
<path fill="#c7df66" stroke="#c7df66" d="M1.8019191858532775 9.994092417228362 L2.3744870661578785 10.13808531008269 L2.5303577075213295 10.17728461785567 L3.12246314954452 10.473034568249636 L3.7540422877025907 10.788501182003197 L4.211428305752474 11.186323973848303 L4.699306725005682 11.61066828514975 L4.9880510905253 12.081059221893018 L5.296045080412893 12.582809554419171 L5.394732944729235 13.090881892177707 L5.5 13.632825719120143 L5.401312135683659 14.140898056878676 L5.296045080412896 14.682841883821112 L5.007300714893279 15.153232820564382 L4.699306725005687 15.654983153090534 L4.2419207069558045 16.05280594493564 L3.754042287702597 16.477150256237085 L3.1619368456794064 16.772900206631054 L2.5303577075213366 17.088366820384614 L2.3744870661578785 17.1275661281576 L1.847446593457538 17.26010950847272 L1.119008071789486 17.443301709100027 L0.3959396789047233 17.47829976537729 L-0.3753332735056901 17.515631025406368 L-1.0849322703289481 17.411288804144164 L-1.8418378669404234 17.299990434797806 L-2.4853397563072033 17.064046521213246 L-3.1717417716317686 16.812373013389717 L-3.701420962232998 16.46232628818179 L-4.266412098874309 16.088943114626666 L-4.642984708264155 15.650754942046829 L-5.044662158279991 15.183354224628333 L-5.240199518725069 14.68952301685933 L-5.448772703199818 14.16276972857239 L-5.448772703199818 13.649920687166992 L-5.448772703199818 13.102881709667901 L-5.253235342754741 12.609050501898896 L-5.0446621582799915 12.082297213611955 L-4.668089548890146 11.644109041032118 L-4.2664120988743095 11.176708323613623 L-3.7367329082730825 10.826661598405698 L-3.1717417716317735 10.453278424850575 L-2.528239882264994 10.217334511266014 L-1.8418378669404294 9.965661003442484 L-1.1322388701171717 9.861318782180275 L-0.3753332735056969 9.750020412833921 L0.3477351193790655 9.785018469111181 L1.1190080717894786 9.82234972914026 z"/>
<path fill="#c7df66" stroke="#c7df66" d="M-3.7367329082730856 10.826661598405698 L-4.266412098874315 11.176708323613624 L-4.266412098874315 16.82950020178621 L-3.171741771631777 16.10607030302316 L-3.1717417716317757 10.453278424850573 z"/>
<path fill="#c7df66" stroke="#c7df66" d="M2.530357707521329 10.177284617855669 L2.374487066157878 10.138085310082689 L1.8019191858532773 9.994092417228362 L1.1190080717894786 9.82234972914026 L1.1190080717894786 15.475141607312848 L2.530357707521329 15.830076496028257 z"/>
<path fill="#c7df66" stroke="#c7df66" d="M-2.5282398822649936 10.217334511266008 L-3.1717417716317735 10.453278424850568 L-3.1717417716317735 16.10607030302316 L-1.841837866940429 15.618452881615069 L-1.841837866940429 9.965661003442477 z"/>
<path fill="#c7df66" stroke="#c7df66" d="M-1.1322388701171715 9.86131878218027 L-1.8418378669404292 9.965661003442477 L-1.8418378669404292 15.618452881615069 L-0.37533327350569684 15.402812291006505 L-0.37533327350569684 9.750020412833914 z"/>
<path fill="#c7df66" stroke="#c7df66" d="M3.12246314954452 10.473034568249632 L2.530357707521329 10.177284617855667 L2.530357707521329 15.830076496028255 L3.7540422877025903 16.44129306017578 L3.7540422877025903 10.788501182003195 z"/>
<path fill="#c7df66" stroke="#c7df66" d="M4.2114283057524755 11.186323973848303 L3.754042287702592 10.788501182003198 L3.7540422877025947 16.441293060175784 L4.699306725005686 17.263460163322335 L4.699306725005683 11.61066828514975 z"/>
<path fill="#c7df66" stroke="#c7df66" d="M4.9880510905253 12.081059221893018 L4.699306725005682 11.610668285149748 L4.699306725005682 17.263460163322335 L5.296045080412894 18.235601432591757 L5.2960450804128945 12.582809554419171 z"/>
<path fill="#c7df66" stroke="#c7df66" d="M5.394732944729235 13.090881892177707 L5.296045080412894 12.58280955441917 L5.296045080412893 18.23560143259176 L5.5 19.285617597292735 L5.499999999999999 13.632825719120145 z"/>
<path fill="#c7df66" stroke="#c7df66" d="M4.699306725005687 21.30777503126312 L5.296045080412896 20.335633761993698 L5.5 19.285617597292735 L5.296045080412893 18.235601432591757 L4.699306725005682 17.263460163322335 L3.7540422877025907 16.441293060175784 L2.5303577075213295 15.830076496028259 L1.1190080717894786 15.475141607312848 L-0.3753332735056969 15.402812291006509 L-1.8418378669404294 15.61845288161507 L-3.1717417716317735 16.106070303023163 L-4.2664120988743095 16.829500201786214 L-5.0446621582799915 17.735089091784545 L-5.448772703199818 18.755673587840487 L-5.448772703199818 19.81556160674498 L-5.044662158279991 20.83614610280092 L-4.266412098874309 21.741734992799255 L-3.1717417716317686 22.465164891562303 L-1.8418378669404234 22.952782312970395 L-0.3753332735056901 23.168422903578957 L1.119008071789486 23.096093587272613 L2.5303577075213366 22.741158698557204 L3.754042287702597 22.129942134409674 z"/>
<path fill="#c7df66" stroke="#c7df66" d="M12.280654722266961 11.01086729548589 L11.531293929606925 10.86904340873218 L11.531293929606925 15.815236302133199 L12.280654722266961 15.95706018888691 z"/>
<path fill="#c7df66" stroke="#c7df66" d="M11.299429508084648 12.808205608703297 L11.76843475445815 12.907498822513695 L11.76843475445815 17.85369171591471 L11.299429508084648 17.754398502104312 z"/>
<path fill="#c7df66" stroke="#c7df66" d="M12.722190151546203 11.160477759614547 L12.280654722266961 11.010867295485895 L12.280654722266961 15.957060188886905 L12.722190151546203 16.106670653015556 z"/>
<path fill="#c7df66" stroke="#c7df66" d="M11.768434754458152 12.907498822513695 L12.272325731612277 12.956035202545628 L12.272325731612277 17.90222809594664 L11.768434754458152 17.853691715914707 z"/>
<path fill="#c7df66" stroke="#c7df66" d="M13.542164998666225 11.606228224327447 L13.141328036591897 11.364258804590273 L13.141328036591897 16.310451697991287 L13.542164998666227 16.55242111772846 z"/>
<path fill="#c7df66" stroke="#c7df66" d="M13.924760825994838 11.881031502929734 L13.542164998666227 11.606228224327447 L13.542164998666225 16.55242111772846 L13.924760825994836 16.82722439633075 z"/>
<path fill="#c7df66" stroke="#c7df66" d="M12.272325731612277 12.956035202545625 L12.798950750997477 12.967595036917203 L12.798950750997477 17.913787930318215 L12.272325731612277 17.902228095946636 z"/>
<path fill="#c7df66" stroke="#c7df66" d="M10.261686913278828 13.996140243883701 L9.635522754016133 13.672156158548576 L9.635522754016135 18.61834905194959 L10.26168691327883 18.942333137284713 z"/>
<path fill="#c7df66" stroke="#c7df66" d="M9.63552275401613 13.672156158548576 L10.609942697790098 12.556708834507457 L10.6099426977901 17.502901727908473 L9.635522754016128 18.61834905194959 z"/>
<path fill="#c7df66" stroke="#c7df66" d="M7.914031207724149 15.009831011919603 L8.42832429011014 15.420743857770477 L8.428324290110142 20.36693675117149 L7.914031207724152 19.956023905320617 z"/>
<path fill="#c7df66" stroke="#c7df66" d="M8.428324290110144 15.420743857770475 L8.814842869540172 15.63333373681524 L8.814842869540174 20.579526630216254 L8.428324290110142 20.36693675117149 z"/>
<path fill="#c7df66" stroke="#c7df66" d="M10.596879726515752 14.248612506849783 L10.261686913278828 13.996140243883701 L10.261686913278826 18.942333137284717 L10.596879726515754 19.194805400250797 z"/>
<path fill="#c7df66" stroke="#c7df66" d="M10.883506478719395 14.545857669865223 L10.596879726515752 14.248612506849783 L10.596879726515754 19.194805400250797 L10.883506478719397 19.492050563266236 z"/>
<path fill="#c7df66" stroke="#c7df66" d="M8.81484286954017 15.633333736815237 L9.25982587780381 15.807529104981723 L9.25982587780381 20.753721998382737 L8.81484286954017 20.57952663021625 z"/>
<path fill="#c7df66" stroke="#c7df66" d="M14.288286984954714 12.18562416723485 L13.924760825994836 11.881031502929734 L13.924760825994838 16.82722439633075 L14.288286984954716 17.131817060635864 z"/>
<path fill="#c7df66" stroke="#c7df66" d="M12.798950750997477 12.967595036917208 L13.343266856708343 12.946170652227302 L13.343266856708343 17.89236354562831 L12.798950750997477 17.913787930318218 z"/>
<path fill="#c7df66" stroke="#c7df66" d="M10.6099426977901 12.556708834507454 L11.299429508084648 12.808205608703295 L11.299429508084648 17.754398502104305 L10.6099426977901 17.502901727908466 z"/>
<path fill="#c7df66" stroke="#c7df66" d="M10.263327778704395 16.07238218376432 L10.810885748836451 16.166308191847893 L10.810885748836451 21.11250108524891 L10.263327778704395 21.018575077165334 z"/>
<path fill="#c7df66" stroke="#c7df66" d="M9.74490150311487 15.953068035904922 L10.263327778704395 16.072382183764326 L10.263327778704395 21.01857507716534 L9.74490150311487 20.899260929305935 z"/>
<path fill="#c7df66" stroke="#c7df66" d="M11.133554386253216 14.874023502786851 L10.883506478719395 14.545857669865223 L10.883506478719395 19.492050563266236 L11.133554386253214 19.820216396187863 z"/>
<path fill="#c7df66" stroke="#c7df66" d="M6.436211826806918 15.800112491684255 L7.914031207724148 15.009831011919605 L7.914031207724147 19.956023905320617 L6.436211826806916 20.746305385085268 z"/>
<path fill="#c7df66" stroke="#c7df66" d="M4.147679536518839 16.606845549310503 L4.417216367698332 17.12154033732107 L4.417216367698332 22.067733230722084 L4.14767953651884 21.55303844271152 z"/>
<path fill="#c7df66" stroke="#c7df66" d="M6.854468860727514 16.262381755966235 L6.436211826806919 15.800112491684253 L6.436211826806919 20.746305385085268 L6.854468860727513 21.208574649367247 z"/>
<path fill="#c7df66" stroke="#c7df66" d="M7.037979941120132 16.5835323081313 L6.854468860727512 16.26238175596623 L6.854468860727512 21.20857464936725 L7.037979941120132 21.529725201532315 z"/>
<path fill="#c7df66" stroke="#c7df66" d="M4.417216367698332 17.12154033732107 L4.668959367968635 17.41863837968139 L4.668959367968635 22.364831273082405 L4.417216367698333 22.067733230722084 z"/>
<path fill="#c7df66" stroke="#c7df66" d="M4.6689593679686325 17.418638379681394 L4.994829741355377 17.694897549807326 L4.994829741355378 22.64109044320834 L4.668959367968633 22.36483127308241 z"/>
<path fill="#c7df66" stroke="#c7df66" d="M9.25982587780381 15.807529104981718 L9.74490150311487 15.953068035904915 L9.74490150311487 20.899260929305935 L9.25982587780381 20.75372199838274 z"/>
<path fill="#c7df66" stroke="#c7df66" d="M7.153333216038961 16.93400109428509 L7.037979941120132 16.583532308131304 L7.037979941120131 21.529725201532315 L7.153333216038961 21.88019398768611 z"/>
<path fill="#c7df66" stroke="#c7df66" d="M4.9948297413553755 17.694897549807326 L5.372722775352343 17.954696681745993 L5.372722775352339 22.90088957514701 L4.994829741355376 22.64109044320834 z"/>
<path fill="#c7df66" stroke="#c7df66" d="M7.217699735718022 18.08780712208552 L7.23947540535079 17.689423182861617 L7.23947540535079 22.635616076262632 L7.217699735718022 23.034000015486534 z"/>
<path fill="#c7df66" stroke="#c7df66" d="M6.257630782619267 18.42624209429554 L7.217699735718021 18.087807122085515 L7.217699735718021 23.03400001548653 L6.257630782619267 23.372434987696554 z"/>
<path fill="#c7df66" stroke="#c7df66" d="M5.7951101303451225 18.19857798901374 L6.257630782619267 18.42624209429554 L6.257630782619267 23.372434987696554 L5.7951101303451225 23.144770882414754 z"/>
<path fill="#c7df66" stroke="#c7df66" d="M5.372722775352344 17.95469668174599 L5.795110130345126 18.198577989013742 L5.795110130345124 23.144770882414758 L5.372722775352342 22.90088957514701 z"/>
<path fill="#c7df66" stroke="#c7df66" d="M7.218782937488464 17.303939965101797 L7.15333321603896 16.934001094285094 L7.153333216038961 21.88019398768611 L7.218782937488465 22.250132858502813 z"/>
<path fill="#c7df66" stroke="#c7df66" d="M2.374487066157878 16.964349914623345 L4.147679536518838 16.606845549310503 L4.147679536518838 21.553038442711518 L2.374487066157878 21.91054280802436 z"/>
<path fill="#c7df66" stroke="#c7df66" d="M2.528793037449491 17.502277113168727 L2.3744870661578785 16.964349914623348 L2.374487066157879 21.910542808024363 L2.528793037449491 22.44847000656974 z"/>
<path fill="#c7df66" stroke="#c7df66" d="M-0.1712596252827108 17.132285917460848 L-0.1823889269322865 17.681126432150165 L-0.18238892693228645 22.62731932555118 L-0.1712596252827108 22.078478810861867 z"/>
<path fill="#c7df66" stroke="#c7df66" d="M-0.1823889269322863 17.681126432150165 L-0.09913559640882803 18.022490572988648 L-0.09913559640882773 22.96868346638966 L-0.18238892693228662 22.62731932555118 z"/>
<path fill="#c7df66" stroke="#c7df66" d="M2.53614567606819 17.848648216739967 L2.528793037449491 17.502277113168727 L2.5287930374494914 22.448470006569742 L2.5361456760681897 22.79484111014098 z"/>
<path fill="#c7df66" stroke="#c7df66" d="M2.4649811517334466 18.20495606262419 L2.5361456760681893 17.848648216739967 L2.53614567606819 22.79484111014098 L2.464981151733447 23.151148956025207 z"/>
<path fill="#c7df66" stroke="#c7df66" d="M7.239475405350791 17.689423182861617 L7.218782937488464 17.303939965101797 L7.218782937488465 22.250132858502816 L7.239475405350791 22.63561607626263 z"/>
<path fill="#c7df66" stroke="#c7df66" d="M-0.0991355964088279 18.022490572988648 L0.06387756999327127 18.36335035191936 L0.06387756999327189 23.309543245320373 L-0.09913559640882727 22.96868346638966 z"/>
<path fill="#c7df66" stroke="#c7df66" d="M2.337346202563148 18.566677836233733 L2.464981151733447 18.204956062624195 L2.4649811517334466 23.151148956025207 L2.3373462025631477 23.512870729634752 z"/>
<path fill="#c7df66" stroke="#c7df66" d="M1.936553129562465 19.29744144216392 L2.1600424847817252 18.93146659147428 L2.1600424847817243 23.877659484875295 L1.936553129562464 24.243634335564934 z"/>
<path fill="#c7df66" stroke="#c7df66" d="M0.8685794019126243 19.367892771654006 L1.9365531295624645 19.29744144216392 L1.9365531295624645 24.243634335564934 L0.8685794019126243 24.31408566505502 z"/>
<path fill="#c7df66" stroke="#c7df66" d="M0.5533410474974408 19.037456326445948 L0.8685794019126244 19.367892771654006 L0.8685794019126235 24.31408566505502 L0.5533410474974376 23.983649219846964 z"/>
<path fill="#c7df66" stroke="#c7df66" d="M0.2838022915149313 18.702144556953535 L0.5533410474974388 19.037456326445948 L0.5533410474974403 23.983649219846964 L0.28380229151493147 23.648337450354546 z"/>
<path fill="#c7df66" stroke="#c7df66" d="M0.06387756999327106 18.363350351919358 L0.28380229151493114 18.702144556953535 L0.28380229151493136 23.648337450354546 L0.06387756999327227 23.309543245320377 z"/>
<path fill="#c7df66" stroke="#c7df66" d="M-2.1503910554131838 17.552418834209643 L-2.0191750264427015 17.011432007275197 L-2.019175026442701 21.957624900676212 L-2.1503910554131833 22.49861172761066 z"/>
<path fill="#c7df66" stroke="#c7df66" d="M-2.0191750264427006 17.011432007275193 L-0.17125962528271074 17.132285917460845 L-0.17125962528271074 22.078478810861863 L-2.0191750264427006 21.957624900676212 z"/>
<path fill="#c7df66" stroke="#c7df66" d="M-4.478300487522847 16.516176707660517 L-4.769322711358776 17.024979383696213 L-4.769322711358776 21.971172277097224 L-4.478300487522845 21.462369601061532 z"/>
<path fill="#c7df66" stroke="#c7df66" d="M-4.769322711358775 17.02497938369621 L-4.866265404722383 17.364529558843852 L-4.866265404722382 22.310722452244867 L-4.769322711358774 21.971172277097224 z"/>
<path fill="#c7df66" stroke="#c7df66" d="M-2.32065185407146 17.877203117669538 L-2.1503910554131833 17.552418834209643 L-2.1503910554131846 22.49861172761066 L-2.3206518540714614 22.823396011070553 z"/>
<path fill="#c7df66" stroke="#c7df66" d="M-2.5691907620651855 18.191147336827047 L-2.32065185407146 17.87720311766954 L-2.3206518540714622 22.823396011070553 L-2.5691907620651886 23.137340230228062 z"/>
<path fill="#c7df66" stroke="#c7df66" d="M-4.866265404722382 17.364529558843852 L-4.888594720204749 17.724031233807505 L-4.888594720204749 22.67022412720852 L-4.866265404722382 22.310722452244867 z"/>
<path fill="#c7df66" stroke="#c7df66" d="M-4.888594720204749 17.724031233807505 L-4.856812468017172 18.096178913344808 L-4.856812468017171 23.042371806745823 L-4.888594720204748 22.67022412720852 z"/>
<path fill="#c7df66" stroke="#c7df66" d="M-3.620450867212777 19.07430960186983 L-3.224965165493997 18.790354603373498 L-3.2249651654939986 23.736547496774513 L-3.620450867212779 24.020502495270843 z"/>
<path fill="#c7df66" stroke="#c7df66" d="M-4.652085866193069 18.866543585617627 L-3.620450867212776 19.074309601869828 L-3.620450867212776 24.020502495270843 L-4.652085866193069 23.812736479018643 z"/>
<path fill="#c7df66" stroke="#c7df66" d="M-4.776997198399835 18.477783284165266 L-4.65208586619307 18.866543585617627 L-4.652085866193069 23.812736479018643 L-4.776997198399835 23.423976177566285 z"/>
<path fill="#c7df66" stroke="#c7df66" d="M-4.856812468017171 18.096178913344804 L-4.776997198399835 18.47778328416527 L-4.776997198399835 23.423976177566285 L-4.856812468017172 23.04237180674582 z"/>
<path fill="#c7df66" stroke="#c7df66" d="M-2.8731421625292697 18.495679974608123 L-2.5691907620651864 18.191147336827047 L-2.569190762065189 23.13734023022806 L-2.873142162529271 23.44187286800914 z"/>
<path fill="#c7df66" stroke="#c7df66" d="M-6.14391686194359 15.928372036550849 L-4.478300487522845 16.516176707660517 L-4.478300487522845 21.46236960106153 L-6.14391686194359 20.87456492995186 z"/>
<path fill="#c7df66" stroke="#c7df66" d="M-6.543179116275908 16.398976243536936 L-6.143916861943591 15.92837203655085 L-6.143916861943591 20.874564929951866 L-6.543179116275908 21.34516913693795 z"/>
<path fill="#c7df66" stroke="#c7df66" d="M-8.182460697370528 14.83637647684757 L-8.714197662148445 15.236017384901565 L-8.714197662148443 20.18221027830258 L-8.182460697370528 19.782569370248584 z"/>
<path fill="#c7df66" stroke="#c7df66" d="M-6.86814882841244 16.65805449920039 L-6.54317911627591 16.398976243536936 L-6.543179116275911 21.34516913693795 L-6.86814882841244 21.6042473926014 z"/>
<path fill="#c7df66" stroke="#c7df66" d="M-8.714197662148445 15.236017384901565 L-8.97838878696232 15.527653168310053 L-8.978388786962318 20.47384606171107 L-8.714197662148443 20.18221027830258 z"/>
<path fill="#c7df66" stroke="#c7df66" d="M-7.260530059157824 16.886962930914777 L-6.868148828412442 16.658054499200386 L-6.868148828412441 21.6042473926014 L-7.260530059157821 21.833155824315796 z"/>
<path fill="#c7df66" stroke="#c7df66" d="M-8.978388786962318 15.527653168310053 L-9.183248812455355 15.857011892005966 L-9.183248812455355 20.80320478540698 L-8.978388786962318 20.473846061711065 z"/>
<path fill="#c7df66" stroke="#c7df66" d="M-9.183248812455355 15.857011892005966 L-9.344146913874841 16.21202878215596 L-9.344146913874841 21.158221675556977 L-9.183248812455355 20.80320478540698 z"/>
<path fill="#c7df66" stroke="#c7df66" d="M-9.465115985111309 16.58817296267277 L-9.547715611888874 16.98254708240257 L-9.547715611888874 21.928739975803584 L-9.465115985111309 21.534365856073784 z"/>
<path fill="#c7df66" stroke="#c7df66" d="M-9.547715611888874 16.98254708240257 L-8.692520055230199 17.440653370979707 L-8.692520055230203 22.386846264380722 L-9.547715611888872 21.92873997580358 z"/>
<path fill="#c7df66" stroke="#c7df66" d="M-8.692520055230203 17.440653370979703 L-8.178526348616863 17.277365976723377 L-8.178526348616863 22.223558870124393 L-8.692520055230203 22.38684626438072 z"/>
<path fill="#c7df66" stroke="#c7df66" d="M-8.178526348616863 17.27736597672338 L-7.699741641849544 17.09289443939517 L-7.699741641849544 22.039087332796182 L-8.178526348616863 22.223558870124393 z"/>
<path fill="#c7df66" stroke="#c7df66" d="M-7.699741641849544 17.092894439395167 L-7.26053005915782 16.886962930914773 L-7.26053005915782 21.833155824315792 L-7.699741641849544 22.039087332796186 z"/>
<path fill="#c7df66" stroke="#c7df66" d="M-9.425145653581195 13.869613204247134 L-8.182460697370525 14.83637647684757 L-8.182460697370528 19.782569370248584 L-9.425145653581195 18.81580609764815 z"/>
<path fill="#c7df66" stroke="#c7df66" d="M-10.037638463236314 14.206429029817505 L-9.425145653581199 13.869613204247134 L-9.4251456535812 18.815806097648146 L-10.037638463236316 19.152621923218515 z"/>
<path fill="#c7df66" stroke="#c7df66" d="M-10.768810181679937 12.330374829881332 L-11.468620990684633 12.567163295525859 L-11.468620990684633 17.513356188926874 L-10.768810181679937 17.276567723282348 z"/>
<path fill="#c7df66" stroke="#c7df66" d="M-10.472899099423982 14.364979013940061 L-10.037638463236311 14.206429029817501 L-10.037638463236311 19.152621923218515 L-10.472899099423982 19.311171907341073 z"/>
<path fill="#c7df66" stroke="#c7df66" d="M-11.468620990684638 12.56716329552586 L-11.863820662553481 12.771605220906181 L-11.86382066255348 17.717798114307197 L-11.468620990684634 17.513356188926878 z"/>
<path fill="#c7df66" stroke="#c7df66" d="M-3.224965165493998 18.790354603373498 L-2.8731421625292706 18.495679974608123 L-2.8731421625292697 23.44187286800914 L-3.224965165493997 23.736547496774513 z"/>
<path fill="#c7df66" stroke="#c7df66" d="M-10.955624576263746 14.478168617905347 L-10.472899099423982 14.364979013940065 L-10.472899099423982 19.31117190734108 L-10.955624576263746 19.424361511306362 z"/>
<path fill="#c7df66" stroke="#c7df66" d="M-11.863820662553483 12.77160522090618 L-12.22294536741812 13.026386008791864 L-12.222945367418122 17.972578902192875 L-11.863820662553481 17.717798114307193 z"/>
<path fill="#c7df66" stroke="#c7df66" d="M-12.222945367418122 13.026386008791862 L-12.554169752525311 13.316327592403539 L-12.554169752525311 18.26252048580455 L-12.222945367418124 17.972578902192875 z"/>
<path fill="#c7df66" stroke="#c7df66" d="M-12.858942190792238 13.63617428602321 L-13.13723833921158 13.982825727268878 L-13.13723833921158 18.929018620669893 L-12.858942190792238 18.582367179424224 z"/>
<path fill="#c7df66" stroke="#c7df66" d="M-13.137238339211578 13.982825727268878 L-12.57355365698876 14.628556172462105 L-12.573553656988759 19.57474906586312 L-13.137238339211576 18.92901862066989 z"/>
<path fill="#c7df66" stroke="#c7df66" d="M-12.57355365698876 14.628556172462106 L-12.010912912866514 14.607636418030216 L-12.010912912866514 19.553829311431222 L-12.57355365698876 19.574749065863116 z"/>
<path fill="#c7df66" stroke="#c7df66" d="M-12.010912912866514 14.607636418030207 L-11.470293607484646 14.5579647128438 L-11.470293607484646 19.50415760624482 L-12.010912912866514 19.553829311431226 z"/>
<path fill="#c7df66" stroke="#c7df66" d="M-11.470293607484646 14.557964712843804 L-10.955624576263746 14.478168617905343 L-10.955624576263746 19.424361511306362 L-11.470293607484646 19.504157606244824 z"/>
<path fill="#c7df66" stroke="#c7df66" d="M-11.428533725233859 11.12472387536916 L-10.768810181679937 12.330374829881338 L-10.768810181679937 17.276567723282348 L-11.428533725233859 16.07091676877017 z"/>
<path fill="#c7df66" stroke="#c7df66" d="M-11.900133776097611 9.346549230747561 L-12.673463615199282 9.389433878678682 L-12.673463615199282 14.3356267720797 L-11.900133776097611 14.292742124148578 z"/>
<path fill="#c7df66" stroke="#c7df66" d="M-12.171216649072498 11.283163149634134 L-11.428533725233859 11.124723875369154 L-11.428533725233859 16.07091676877017 L-12.171216649072498 16.229356043035153 z"/>
<path fill="#c7df66" stroke="#c7df66" d="M-12.657933368826667 11.320356812897423 L-12.171216649072498 11.283163149634134 L-12.171216649072498 16.22935604303515 L-12.657933368826667 16.266549706298438 z"/>
<path fill="#c7df66" stroke="#c7df66" d="M-12.673463615199282 9.389433878678679 L-13.146119717578117 9.479643298108149 L-13.146119717578117 14.425836191509173 L-12.673463615199282 14.335626772079703 z"/>
<path fill="#c7df66" stroke="#c7df66" d="M-9.344146913874843 16.212028782155965 L-9.465115985111309 16.58817296267277 L-9.465115985111309 21.534365856073784 L-9.344146913874843 21.158221675556977 z"/>
<path fill="#c7df66" stroke="#c7df66" d="M-13.146119717578117 9.479643298108154 L-13.610694361101867 9.62600371995081 L-13.610694361101867 14.572196613351824 L-13.146119717578117 14.42583619150917 z"/>
<path fill="#c7df66" stroke="#c7df66" d="M-13.165889473370862 11.303146823982264 L-12.657933368826669 11.320356812897424 L-12.657933368826669 16.266549706298438 L-13.165889473370862 16.249339717383275 z"/>
<path fill="#c7df66" stroke="#c7df66" d="M-13.686683027772272 11.246648975291075 L-13.165889473370864 11.303146823982267 L-13.165889473370864 16.249339717383283 L-13.686683027772272 16.19284186869209 z"/>
<path fill="#c7df66" stroke="#c7df66" d="M-14.514024629231118 10.03317631338044 L-14.949862769157898 10.285829014554444 L-14.949862769157896 15.232021907955458 L-14.514024629231118 14.979369206781456 z"/>
<path fill="#c7df66" stroke="#c7df66" d="M-14.94986276915789 10.285829014554444 L-14.75202043630748 11.031796321519428 L-14.75202043630748 15.977989214920441 L-14.94986276915789 15.232021907955458 z"/>
<path fill="#c7df66" stroke="#c7df66" d="M-14.752020436307479 11.031796321519426 L-14.216382887382336 11.155438699839351 L-14.216382887382336 16.101631593240363 L-14.752020436307479 15.977989214920438 z"/>
<path fill="#c7df66" stroke="#c7df66" d="M-14.067102421483932 9.812272284742708 L-14.51402462923111 10.03317631338044 L-14.51402462923111 14.979369206781456 L-14.067102421483932 14.758465178143723 z"/>
<path fill="#c7df66" stroke="#c7df66" d="M-13.610694361101865 9.626003719950806 L-14.067102421483932 9.812272284742704 L-14.067102421483932 14.758465178143721 L-13.610694361101865 14.572196613351824 z"/>
<path fill="#c7df66" stroke="#c7df66" d="M-12.673463615199282 7.983831772759567 L-11.900133776097611 8.026716420690688 L-11.900133776097611 12.972909314091705 L-12.673463615199282 12.930024666160584 z"/>
<path fill="#c7df66" stroke="#c7df66" d="M-11.900133776097613 8.026716420690695 L-11.900133776097613 9.346549230747566 L-11.900133776097613 14.292742124148582 L-11.900133776097613 12.97290931409171 z"/>
<path fill="#c7df66" stroke="#c7df66" d="M-11.428533725233859 6.2485417760691 L-12.171216649072498 6.09010250180412 L-12.171216649072498 11.036295395205132 L-11.428533725233859 11.194734669470112 z"/>
<path fill="#c7df66" stroke="#c7df66" d="M-12.171216649072498 6.090102501804116 L-12.657933368826667 6.052908838540829 L-12.657933368826667 10.999101731941845 L-12.171216649072498 11.036295395205133 z"/>
<path fill="#c7df66" stroke="#c7df66" d="M-13.146119717578117 7.893622353330101 L-12.673463615199282 7.983831772759571 L-12.673463615199282 12.930024666160586 L-13.146119717578117 12.839815246731115 z"/>
<path fill="#c7df66" stroke="#c7df66" d="M-12.554169752525308 13.316327592403539 L-12.858942190792238 13.636174286023211 L-12.858942190792238 18.582367179424224 L-12.55416975252531 18.262520485804554 z"/>
<path fill="#c7df66" stroke="#c7df66" d="M-13.610694361101867 7.747261931487443 L-13.146119717578117 7.893622353330097 L-13.146119717578117 12.839815246731112 L-13.610694361101867 12.693454824888457 z"/>
<path fill="#c7df66" stroke="#c7df66" d="M-12.657933368826669 6.052908838540833 L-13.165889473370862 6.070118827455993 L-13.165889473370862 11.016311720857008 L-12.657933368826669 10.999101731941847 z"/>
<path fill="#c7df66" stroke="#c7df66" d="M-13.165889473370864 6.070118827455991 L-13.686683027772272 6.126616676147182 L-13.686683027772272 11.072809569548197 L-13.165889473370864 11.016311720857006 z"/>
<path fill="#c7df66" stroke="#c7df66" d="M-14.949862769157887 7.087436636883814 L-14.51402462923111 7.340089338057815 L-14.51402462923111 12.28628223145883 L-14.949862769157889 12.033629530284829 z"/>
<path fill="#c7df66" stroke="#c7df66" d="M-14.752020436307482 6.341469329918832 L-14.949862769157892 7.087436636883816 L-14.949862769157892 12.03362953028483 L-14.752020436307482 11.287662223319847 z"/>
<path fill="#c7df66" stroke="#c7df66" d="M-14.216382887382336 6.217826951598903 L-14.752020436307479 6.341469329918828 L-14.752020436307479 11.28766222331984 L-14.216382887382336 11.164019844999913 z"/>
<path fill="#c7df66" stroke="#c7df66" d="M-14.51402462923111 7.340089338057811 L-14.067102421483932 7.560993366695544 L-14.067102421483932 12.50718626009656 L-14.51402462923111 12.286282231458827 z"/>
<path fill="#c7df66" stroke="#c7df66" d="M-14.216382887382336 11.155438699839346 L-13.686683027772274 11.246648975291068 L-13.686683027772274 16.19284186869208 L-14.216382887382336 16.10163159324036 z"/>
<path fill="#c7df66" stroke="#c7df66" d="M-9.425145653581191 3.503652447191125 L-10.037638463236307 3.166836621620754 L-10.037638463236307 8.11302951502177 L-9.425145653581191 8.449845340592143 z"/>
<path fill="#c7df66" stroke="#c7df66" d="M-11.468620990684633 4.806102355912397 L-10.768810181679937 5.042890821556924 L-10.768810181679937 9.989083714957934 L-11.468620990684633 9.752295249313407 z"/>
<path fill="#c7df66" stroke="#c7df66" d="M-10.037638463236311 3.166836621620754 L-10.472899099423982 3.0082866374981934 L-10.472899099423982 7.954479530899207 L-10.037638463236311 8.113029515021767 z"/>
<path fill="#c7df66" stroke="#c7df66" d="M-11.863820662553476 4.60166043053208 L-11.468620990684629 4.8061023559123965 L-11.468620990684629 9.752295249313415 L-11.863820662553472 9.547853323933095 z"/>
<path fill="#c7df66" stroke="#c7df66" d="M-13.686683027772274 6.126616676147179 L-14.216382887382336 6.217826951598901 L-14.216382887382336 11.164019844999915 L-13.686683027772274 11.072809569548195 z"/>
<path fill="#c7df66" stroke="#c7df66" d="M-10.472899099423982 3.0082866374981894 L-10.955624576263746 2.895097033532908 L-10.955624576263746 7.841289926933922 L-10.472899099423982 7.954479530899205 z"/>
<path fill="#c7df66" stroke="#c7df66" d="M-12.222945367418117 4.346879642646398 L-11.863820662553476 4.601660430532078 L-11.863820662553476 9.547853323933095 L-12.222945367418118 9.293072536047413 z"/>
<path fill="#c7df66" stroke="#c7df66" d="M-12.554169752525308 4.056938059034722 L-12.222945367418115 4.346879642646396 L-12.222945367418118 9.293072536047411 L-12.554169752525306 9.003130952435736 z"/>
<path fill="#c7df66" stroke="#c7df66" d="M-13.137238339211576 3.3904399241693817 L-12.858942190792233 3.7370913654150497 L-12.858942190792236 8.683284258816064 L-13.137238339211574 8.336632817570395 z"/>
<path fill="#c7df66" stroke="#c7df66" d="M-12.573553656988762 2.7447094789761546 L-13.137238339211581 3.3904399241693812 L-13.13723833921158 8.336632817570397 L-12.573553656988764 7.690902372377169 z"/>
<path fill="#c7df66" stroke="#c7df66" d="M-11.470293607484646 2.815300938594446 L-12.010912912866514 2.7656292334080392 L-12.010912912866514 7.711822126809059 L-11.470293607484646 7.761493831995465 z"/>
<path fill="#c7df66" stroke="#c7df66" d="M-10.955624576263746 2.895097033532909 L-11.470293607484646 2.815300938594448 L-11.470293607484646 7.761493831995467 L-10.955624576263746 7.8412899269339285 z"/>
<path fill="#c7df66" stroke="#c7df66" d="M-14.067102421483932 7.560993366695545 L-13.610694361101865 7.747261931487443 L-13.610694361101865 12.69345482488846 L-14.067102421483932 12.507186260096562 z"/>
<path fill="#c7df66" stroke="#c7df66" d="M-10.768810181679939 5.042890821556924 L-11.42853372523386 6.2485417760691 L-11.42853372523386 11.194734669470114 L-10.768810181679939 9.989083714957937 z"/>
<path fill="#c7df66" stroke="#c7df66" d="M-8.182460697370528 2.53688917459069 L-9.4251456535812 3.5036524471911275 L-9.425145653581197 8.449845340592143 L-8.18246069737053 7.483082067991705 z"/>
<path fill="#c7df66" stroke="#c7df66" d="M-6.143916861943587 1.4448936148874092 L-6.5431791162759065 0.9742894079013236 L-6.543179116275905 5.9204823013023375 L-6.143916861943589 6.391086508288425 z"/>
<path fill="#c7df66" stroke="#c7df66" d="M-8.714197662148441 2.137248266536695 L-8.182460697370525 2.53688917459069 L-8.182460697370525 7.483082067991703 L-8.71419766214844 7.08344115993771 z"/>
<path fill="#c7df66" stroke="#c7df66" d="M-6.5431791162759065 0.9742894079013238 L-6.868148828412438 0.7152111522378747 L-6.868148828412438 5.661404045638888 L-6.543179116275905 5.920482301302339 z"/>
<path fill="#c7df66" stroke="#c7df66" d="M-8.978388786962313 1.8456124831282068 L-8.71419766214844 2.1372482665366936 L-8.714197662148441 7.08344115993771 L-8.978388786962316 6.791805376529222 z"/>
<path fill="#c7df66" stroke="#c7df66" d="M-12.858942190792234 3.73709136541505 L-12.554169752525306 4.056938059034721 L-12.554169752525308 9.003130952435736 L-12.858942190792236 8.683284258816066 z"/>
<path fill="#c7df66" stroke="#c7df66" d="M-6.868148828412435 0.715211152237871 L-7.260530059157816 0.4863027205234787 L-7.260530059157817 5.432495613924496 L-6.868148828412437 5.661404045638888 z"/>
<path fill="#c7df66" stroke="#c7df66" d="M-9.344146913874841 1.161236869282297 L-9.183248812455354 1.5162537594322958 L-9.183248812455354 6.46244665283331 L-9.344146913874841 6.107429762683312 z"/>
<path fill="#c7df66" stroke="#c7df66" d="M-8.69252005523021 -0.06738771954144815 L-9.54771561188888 0.3907185690356921 L-9.547715611888881 5.3369114624367056 L-8.692520055230204 4.878805173859565 z"/>
<path fill="#c7df66" stroke="#c7df66" d="M-9.547715611888874 0.39071856903569213 L-9.465115985111307 0.7850926887654909 L-9.465115985111307 5.731285582166505 L-9.547715611888874 5.336911462436706 z"/>
<path fill="#c7df66" stroke="#c7df66" d="M-8.178526348616863 0.09589967471487258 L-8.692520055230203 -0.06738771954145331 L-8.692520055230203 4.878805173859562 L-8.178526348616863 5.042092568115888 z"/>
<path fill="#c7df66" stroke="#c7df66" d="M-7.699741641849544 0.2803712120430805 L-8.178526348616863 0.09589967471486988 L-8.178526348616863 5.04209256811589 L-7.699741641849544 5.2265641054441 z"/>
<path fill="#c7df66" stroke="#c7df66" d="M-7.26053005915782 0.4863027205234741 L-7.699741641849544 0.28037121204308196 L-7.699741641849544 5.226564105444099 L-7.26053005915782 5.432495613924491 z"/>
<path fill="#c7df66" stroke="#c7df66" d="M-12.010912912866514 2.765629233408037 L-12.57355365698876 2.7447094789761457 L-12.57355365698876 7.690902372377165 L-12.010912912866514 7.711822126809056 z"/>
<path fill="#c7df66" stroke="#c7df66" d="M-4.478300487522845 0.8570889437777348 L-6.14391686194359 1.4448936148874034 L-6.14391686194359 6.3910865082884225 L-4.478300487522845 5.803281837178754 z"/>
<path fill="#c7df66" stroke="#c7df66" d="M-2.0191750264427006 0.3618336441630609 L-2.150391055413183 -0.1791531827713842 L-2.1503910554131838 4.76703971062963 L-2.0191750264426993 5.308026537564075 z"/>
<path fill="#c7df66" stroke="#c7df66" d="M-4.769322711358773 0.3482862677420492 L-4.478300487522844 0.8570889437777413 L-4.478300487522843 5.803281837178755 L-4.769322711358773 5.294479161143063 z"/>
<path fill="#c7df66" stroke="#c7df66" d="M-4.866265404722382 0.008736092594406926 L-4.769322711358774 0.3482862677420495 L-4.7693227113587735 5.294479161143064 L-4.866265404722381 4.954928985995421 z"/>
<path fill="#c7df66" stroke="#c7df66" d="M-2.1503910554131833 -0.1791531827713842 L-2.32065185407146 -0.5039374662312806 L-2.320651854071458 4.442255427169734 L-2.150391055413181 4.76703971062963 z"/>
<path fill="#c7df66" stroke="#c7df66" d="M-9.465115985111307 0.7850926887654908 L-9.344146913874841 1.161236869282297 L-9.344146913874841 6.107429762683312 L-9.465115985111307 5.731285582166505 z"/>
<path fill="#c7df66" stroke="#c7df66" d="M-2.3206518540714574 -0.5039374662312818 L-2.569190762065183 -0.817881685388786 L-2.5691907620651855 4.12831120801223 L-2.3206518540714596 4.4422554271697345 z"/>
<path fill="#c7df66" stroke="#c7df66" d="M-4.856812468017172 -0.722913261906548 L-4.888594720204749 -0.3507655823692461 L-4.888594720204749 4.595427311031768 L-4.856812468017172 4.223279631494466 z"/>
<path fill="#c7df66" stroke="#c7df66" d="M-3.620450867212776 -1.701043950431577 L-4.652085866193069 -1.493277934179376 L-4.652085866193069 3.452914959221642 L-3.620450867212776 3.245148942969441 z"/>
<path fill="#c7df66" stroke="#c7df66" d="M-3.2249651654939955 -1.417088951935238 L-3.6204508672127744 -1.7010439504315682 L-3.620450867212773 3.245148942969444 L-3.224965165493993 3.5291039414657766 z"/>
<path fill="#c7df66" stroke="#c7df66" d="M-4.65208586619307 -1.4932779341793685 L-4.776997198399837 -1.1045176327270096 L-4.776997198399836 3.8416752606740046 L-4.65208586619307 3.452914959221646 z"/>
<path fill="#c7df66" stroke="#c7df66" d="M-4.776997198399837 -1.1045176327270099 L-4.856812468017172 -0.722913261906548 L-4.856812468017173 4.223279631494466 L-4.776997198399835 3.8416752606740046 z"/>
<path fill="#c7df66" stroke="#c7df66" d="M-2.5691907620651846 -0.817881685388786 L-2.8731421625292652 -1.1224143231698636 L-2.8731421625292675 3.8237785702311498 L-2.5691907620651815 4.128311208012228 z"/>
<path fill="#c7df66" stroke="#c7df66" d="M-9.183248812455352 1.5162537594322958 L-8.978388786962316 1.8456124831282072 L-8.978388786962316 6.791805376529222 L-9.183248812455354 6.46244665283331 z"/>
<path fill="#c7df66" stroke="#c7df66" d="M-0.17125962528271074 0.2409797339774073 L-2.0191750264427006 0.3618336441630579 L-2.0191750264427006 5.308026537564068 L-0.17125962528271074 5.187172627378417 z"/>
<path fill="#c7df66" stroke="#c7df66" d="M2.3744870661578767 0.4089157368149127 L2.52879303744949 -0.12901146173046762 L2.52879303744949 4.817181431670547 L2.374487066157878 5.355108630215928 z"/>
<path fill="#c7df66" stroke="#c7df66" d="M-0.18238892693228634 -0.3078607807119064 L-0.17125962528271074 0.2409797339774103 L-0.17125962528271074 5.187172627378425 L-0.18238892693228634 4.638332112689108 z"/>
<path fill="#c7df66" stroke="#c7df66" d="M-0.09913559640882849 -0.6492249215503869 L-0.1823889269322868 -0.3078607807119065 L-0.1823889269322866 4.638332112689108 L-0.09913559640882832 4.296967971850628 z"/>
<path fill="#c7df66" stroke="#c7df66" d="M2.528793037449491 -0.1290114617304676 L2.5361456760681897 -0.4753825653017063 L2.5361456760681897 4.470810328099308 L2.5287930374494914 4.817181431670547 z"/>
<path fill="#c7df66" stroke="#c7df66" d="M-2.8731421625292692 -1.122414323169865 L-3.2249651654939955 -1.4170889519352374 L-3.224965165493994 3.5291039414657766 L-2.873142162529266 3.8237785702311515 z"/>
<path fill="#c7df66" stroke="#c7df66" d="M0.06387756999326957 -0.9900847004811009 L-0.09913559640882959 -0.6492249215503868 L-0.09913559640882798 4.296967971850628 L0.06387756999327115 3.9561081929199142 z"/>
<path fill="#c7df66" stroke="#c7df66" d="M2.4649811517334483 -0.8316904111859338 L2.3373462025631495 -1.1934121847954757 L2.337346202563149 3.752780708605539 L2.464981151733448 4.11450248221508 z"/>
<path fill="#c7df66" stroke="#c7df66" d="M1.9365531295624645 -1.9241757907256667 L0.8685794019126243 -1.9946271202157535 L0.8685794019126243 2.9515657731852625 L1.9365531295624645 3.0220171026753495 z"/>
<path fill="#c7df66" stroke="#c7df66" d="M2.1600424847817288 -1.5582009400360195 L1.9365531295624665 -1.9241757907256596 L1.9365531295624652 3.0220171026753557 L2.160042484781727 3.3879919533649954 z"/>
<path fill="#c7df66" stroke="#c7df66" d="M0.8685794019126238 -1.9946271202157455 L0.5533410474974381 -1.6641906750076894 L0.5533410474974353 3.2820022183933246 L0.8685794019126212 2.9515657731852687 z"/>
<path fill="#c7df66" stroke="#c7df66" d="M0.5533410474974354 -1.6641906750076902 L0.28380229151492725 -1.3288789055152739 L0.28380229151492875 3.617313987885741 L0.553341047497437 3.2820022183933246 z"/>
<path fill="#c7df66" stroke="#c7df66" d="M0.28380229151492986 -1.3288789055152734 L0.06387756999326867 -0.9900847004811014 L0.06387756999326993 3.956108192919914 L0.28380229151493114 3.617313987885742 z"/>
<path fill="#c7df66" stroke="#c7df66" d="M-4.888594720204748 -0.3507655823692461 L-4.866265404722382 0.008736092594406872 L-4.866265404722382 4.954928985995422 L-4.888594720204748 4.595427311031768 z"/>
<path fill="#c7df66" stroke="#c7df66" d="M4.417216367698329 0.25172531411718924 L4.147679536518838 0.7664201021277547 L4.1476795365188375 5.71261299552877 L4.4172163676983285 5.197918207518204 z"/>
<path fill="#c7df66" stroke="#c7df66" d="M6.4362118268069155 1.5731531597540065 L6.8544688607275095 1.1108838954720255 L6.854468860727512 6.057076788873041 L6.436211826806917 6.519346053155021 z"/>
<path fill="#c7df66" stroke="#c7df66" d="M4.66895936796863 -0.04537272824313216 L4.417216367698331 0.25172531411719007 L4.417216367698331 5.197918207518205 L4.668959367968631 4.900820165157882 z"/>
<path fill="#c7df66" stroke="#c7df66" d="M4.99482974135537 -0.32163189836906664 L4.66895936796863 -0.04537272824313052 L4.66895936796863 4.900820165157883 L4.994829741355371 4.624560995031946 z"/>
<path fill="#c7df66" stroke="#c7df66" d="M2.3373462025631486 -1.193412184795475 L2.1600424847817266 -1.5582009400360195 L2.160042484781727 3.3879919533649954 L2.337346202563149 3.752780708605539 z"/>
<path fill="#c7df66" stroke="#c7df66" d="M7.03797994112013 0.7897333433069575 L7.15333321603896 0.4392645571531675 L7.153333216038959 5.385457450554181 L7.03797994112013 5.735926236707972 z"/>
<path fill="#c7df66" stroke="#c7df66" d="M5.372722775352335 -0.5814310303077338 L4.994829741355371 -0.3216318983690646 L4.994829741355371 4.624560995031946 L5.372722775352337 4.364761863093283 z"/>
<path fill="#c7df66" stroke="#c7df66" d="M7.217699735718021 -0.7145414706472629 L6.257630782619267 -1.0529764428572885 L6.257630782619267 3.893216450543726 L7.217699735718021 4.231651422753751 z"/>
<path fill="#c7df66" stroke="#c7df66" d="M7.239475405350791 -0.31615753142335684 L7.217699735718023 -0.7145414706472586 L7.217699735718023 4.231651422753756 L7.239475405350791 4.630035361977658 z"/>
<path fill="#c7df66" stroke="#c7df66" d="M6.257630782619267 -1.0529764428572903 L5.7951101303451225 -0.8253123375754887 L5.7951101303451225 4.120880555825527 L6.257630782619267 3.8932164505437257 z"/>
<path fill="#c7df66" stroke="#c7df66" d="M5.795110130345122 -0.8253123375754823 L5.372722775352332 -0.5814310303077337 L5.372722775352336 4.36476186309328 L5.795110130345117 4.120880555825532 z"/>
<path fill="#c7df66" stroke="#c7df66" d="M7.153333216038959 0.43926455715316737 L7.218782937488464 0.06932568633646106 L7.218782937488464 5.015518579737475 L7.153333216038959 5.385457450554182 z"/>
<path fill="#c7df66" stroke="#c7df66" d="M2.5361456760681906 -0.47538256530170625 L2.464981151733447 -0.8316904111859339 L2.4649811517334475 4.114502482215081 L2.53614567606819 4.470810328099308 z"/>
<path fill="#c7df66" stroke="#c7df66" d="M7.914031207724152 2.36343463951866 L6.4362118268069235 1.5731531597540047 L6.436211826806925 6.519346053155019 L7.914031207724151 7.309627532919671 z"/>
<path fill="#c7df66" stroke="#c7df66" d="M9.635522754016126 3.7011094928896844 L10.26168691327882 3.3771254075545585 L10.261686913278819 8.323318300955572 L9.635522754016126 8.647302386290695 z"/>
<path fill="#c7df66" stroke="#c7df66" d="M8.814842869540168 1.739931914623021 L8.428324290110133 1.9525217936677843 L8.428324290110137 6.898714687068799 L8.814842869540165 6.6861248080240365 z"/>
<path fill="#c7df66" stroke="#c7df66" d="M10.261686913278822 3.3771254075545594 L10.596879726515747 3.1246531445884775 L10.596879726515747 8.070846037989494 L10.261686913278824 8.323318300955576 z"/>
<path fill="#c7df66" stroke="#c7df66" d="M10.59687972651575 3.124653144588479 L10.88350647871939 2.8274079815730366 L10.883506478719394 7.773600874974052 L10.59687972651575 8.070846037989492 z"/>
<path fill="#c7df66" stroke="#c7df66" d="M7.218782937488464 0.06932568633646113 L7.23947540535079 -0.31615753142335684 L7.23947540535079 4.630035361977658 L7.218782937488464 5.015518579737476 z"/>
<path fill="#c7df66" stroke="#c7df66" d="M9.25982587780381 1.5657365464565338 L8.81484286954017 1.739931914623019 L8.81484286954017 6.686124808024032 L9.25982587780381 6.511929439857547 z"/>
<path fill="#c7df66" stroke="#c7df66" d="M9.74490150311487 1.4201976155333322 L9.25982587780381 1.5657365464565294 L9.25982587780381 6.511929439857543 L9.74490150311487 6.366390508934346 z"/>
<path fill="#c7df66" stroke="#c7df66" d="M11.533073761490126 1.7681293956440978 L10.810885748836457 1.206957459590359 L10.810885748836455 6.153150352991376 L11.533073761490128 6.7143222890451115 z"/>
<path fill="#c7df66" stroke="#c7df66" d="M11.34981566495002 2.145132472005963 L11.533073761490122 1.7681293956440962 L11.53307376149012 6.714322289045111 L11.349815664950018 7.091325365406977 z"/>
<path fill="#c7df66" stroke="#c7df66" d="M10.810885748836451 1.2069574595903554 L10.263327778704395 1.3008834676739294 L10.263327778704395 6.247076361074946 L10.810885748836451 6.153150352991371 z"/>
<path fill="#c7df66" stroke="#c7df66" d="M10.263327778704395 1.3008834676739318 L9.74490150311487 1.4201976155333373 L9.74490150311487 6.3663905089343515 L10.263327778704395 6.247076361074946 z"/>
<path fill="#c7df66" stroke="#c7df66" d="M10.883506478719394 2.827407981573038 L11.133554386253213 2.4992421486514096 L11.133554386253213 7.445435042052424 L10.883506478719392 7.773600874974052 z"/>
<path fill="#c7df66" stroke="#c7df66" d="M6.854468860727512 1.1108838954720262 L7.037979941120129 0.7897333433069578 L7.03797994112013 5.735926236707972 L6.85446886072751 6.05707678887304 z"/>
<path fill="#c7df66" stroke="#c7df66" d="M10.609942697790103 4.816556816930802 L9.635522754016131 3.701109492889684 L9.635522754016131 8.647302386290699 L10.609942697790101 9.762749710331818 z"/>
<path fill="#c7df66" stroke="#c7df66" d="M4.147679536518838 0.7664201021277526 L2.374487066157878 0.40891573681491067 L2.374487066157878 5.355108630215926 L4.147679536518838 5.712612995528768 z"/>
<path fill="#c7df66" stroke="#c7df66" d="M11.299429508084648 4.565060042734959 L10.6099426977901 4.816556816930799 L10.6099426977901 9.76274971033181 L11.299429508084648 9.511252936135971 z"/>
<path fill="#c7df66" stroke="#c7df66" d="M11.76843475445815 4.465766828924563 L11.299429508084648 4.565060042734962 L11.299429508084648 9.51125293613597 L11.76843475445815 9.411959722325571 z"/>
<path fill="#c7df66" stroke="#c7df66" d="M12.280654722266961 6.362398355952361 L12.722190151546203 6.212787891823708 L12.722190151546203 11.158980785224724 L12.280654722266961 11.308591249353379 z"/>
<path fill="#c7df66" stroke="#c7df66" d="M12.722190151546204 6.212787891823709 L13.141328036591894 6.009006846847983 L13.141328036591894 10.955199740249 L12.722190151546204 11.158980785224726 z"/>
<path fill="#c7df66" stroke="#c7df66" d="M11.133554386253214 2.49924214865141 L11.349815664950018 2.1451324720059626 L11.349815664950018 7.091325365406977 L11.133554386253214 7.4454350420524245 z"/>
<path fill="#c7df66" stroke="#c7df66" d="M12.272325731612277 4.417230448892623 L11.768434754458152 4.465766828924557 L11.768434754458152 9.411959722325578 L12.272325731612277 9.363423342293645 z"/>
<path fill="#c7df66" stroke="#c7df66" d="M12.798950750997477 4.405670614521051 L12.272325731612277 4.41723044889263 L12.272325731612277 9.363423342293643 L12.798950750997477 9.351863507922063 z"/>
<path fill="#c7df66" stroke="#c7df66" d="M14.288286984954714 5.18764148420341 L13.901768203323158 4.479643967462637 L13.901768203323156 9.425836860863653 L14.288286984954714 10.133834377604424 z"/>
<path fill="#c7df66" stroke="#c7df66" d="M13.901768203323154 4.479643967462637 L13.343266856708343 4.427094999210958 L13.343266856708343 9.37328789261197 L13.901768203323154 9.42583686086365 z"/>
<path fill="#c7df66" stroke="#c7df66" d="M13.92476082599483 5.492234148508525 L14.288286984954711 5.187641484203409 L14.28828698495471 10.133834377604423 L13.924760825994834 10.438427041909542 z"/>
<path fill="#c7df66" stroke="#c7df66" d="M13.542164998666221 5.767037427110815 L13.924760825994834 5.492234148508528 L13.92476082599483 10.43842704190954 L13.54216499866622 10.713230320511826 z"/>
<path fill="#c7df66" stroke="#c7df66" d="M13.14132803659189 6.009006846847984 L13.542164998666223 5.767037427110814 L13.542164998666223 10.713230320511828 L13.141328036591894 10.955199740249002 z"/>
<path fill="#c7df66" stroke="#c7df66" d="M8.428324290110137 1.9525217936677817 L7.914031207724146 2.3634346395186574 L7.914031207724146 7.309627532919674 L8.428324290110137 6.898714687068798 z"/>
<path fill="#c7df66" stroke="#c7df66" d="M11.531293929606925 10.869043408732184 L11.867966418435133 9.591241585189746 L11.867966418435133 14.53743447859076 L11.531293929606925 15.8152363021332 z"/>
<path fill="#c7df66" stroke="#c7df66" d="M12.63920586275692 7.723238092949917 L11.867966418435133 7.782024066248511 L11.867966418435133 12.728216959649526 L12.63920586275692 12.669430986350932 z"/>
<path fill="#c7df66" stroke="#c7df66" d="M11.867966418435133 9.591241585189746 L12.63920586275692 9.65002755848834 L12.63920586275692 14.596220451889353 L11.867966418435133 14.53743447859076 z"/>
<path fill="#c7df66" stroke="#c7df66" d="M12.63920586275692 9.650027558488333 L13.12726650467674 9.623056913302865 L13.12726650467674 14.569249806703885 L12.63920586275692 14.596220451889355 z"/>
<path fill="#c7df66" stroke="#c7df66" d="M13.12726650467674 7.750208738135383 L12.63920586275692 7.723238092949914 L12.63920586275692 12.669430986350934 L13.12726650467674 12.696401631536403 z"/>
<path fill="#c7df66" stroke="#c7df66" d="M13.12726650467674 9.623056913302866 L13.622020963254677 9.53984392474222 L13.622020963254677 14.486036818143232 L13.12726650467674 14.569249806703878 z"/>
<path fill="#c7df66" stroke="#c7df66" d="M13.343266856708343 4.427094999210953 L12.798950750997477 4.405670614521046 L12.798950750997477 9.351863507922065 L13.343266856708343 9.373287892611971 z"/>
<path fill="#c7df66" stroke="#c7df66" d="M13.622020963254677 7.833421726696035 L13.12726650467674 7.750208738135389 L13.12726650467674 12.696401631536402 L13.622020963254677 12.779614620097048 z"/>
<path fill="#c7df66" stroke="#c7df66" d="M13.622020963254677 9.539843924742222 L14.11915162653105 9.41634164401501 L14.11915162653105 14.362534537416025 L13.622020963254677 14.486036818143237 z"/>
<path fill="#c7df66" stroke="#c7df66" d="M11.34981566495002 15.228133179432296 L11.133554386253216 14.87402350278685 L11.133554386253216 19.820216396187863 L11.349815664950022 20.174326072833313 z"/>
<path fill="#c7df66" stroke="#c7df66" d="M15.110205176812038 9.06612792323405 L15.110205176812038 8.30713772820421 L15.110205176812038 13.253330621605226 L15.110205176812038 14.012320816635066 z"/>
<path fill="#c7df66" stroke="#c7df66" d="M15.110205176812036 8.307137728204204 L14.61598745730608 8.115705561467658 L14.61598745730608 13.061898454868679 L15.110205176812036 13.253330621605224 z"/>
<path fill="#c7df66" stroke="#c7df66" d="M11.533073761490124 15.605136255794164 L11.34981566495002 15.228133179432296 L11.34981566495002 20.17432607283331 L11.533073761490122 20.551329149195176 z"/>
<path fill="#c7df66" stroke="#c7df66" d="M10.810885748836451 16.1663081918479 L11.533073761490122 15.605136255794164 L11.533073761490122 20.55132914919518 L10.81088574883645 21.112501085248915 z"/>
<path fill="#c7df66" stroke="#c7df66" d="M14.61598745730608 9.257560089970587 L15.110205176812036 9.066127923234044 L15.110205176812036 14.012320816635063 L14.61598745730608 14.203752983371608 z"/>
<path fill="#c7df66" stroke="#c7df66" d="M13.141328036591894 11.364258804590275 L12.722190151546204 11.16047775961455 L12.722190151546204 16.10667065301556 L13.141328036591894 16.310451697991283 z"/>
<path fill="#c7df66" stroke="#c7df66" d="M14.615987457306078 8.115705561467662 L14.119151626531048 7.956924007423244 L14.119151626531048 12.90311690082426 L14.615987457306078 13.061898454868677 z"/>
<path fill="#c7df66" stroke="#c7df66" d="M13.901768203323154 12.893621683975622 L14.288286984954713 12.18562416723485 L14.288286984954713 17.131817060635864 L13.901768203323154 17.839814577376636 z"/>
<path fill="#c7df66" stroke="#c7df66" d="M13.343266856708343 12.946170652227293 L13.901768203323154 12.893621683975613 L13.901768203323154 17.839814577376636 L13.343266856708343 17.892363545628314 z"/>
<path fill="#c7df66" stroke="#c7df66" d="M14.11915162653105 7.9569240074232415 L13.622020963254677 7.833421726696028 L13.622020963254677 12.779614620097043 L14.11915162653105 12.903116900824255 z"/>
<path fill="#c7df66" stroke="#c7df66" d="M11.867966418435133 7.782024066248515 L11.531293929606925 6.504222242706075 L11.531293929606926 11.45041513610709 L11.867966418435135 12.728216959649531 z"/>
<path fill="#c7df66" stroke="#c7df66" d="M11.531293929606925 6.504222242706075 L12.280654722266961 6.362398355952365 L12.280654722266961 11.308591249353379 L11.531293929606925 11.450415136107088 z"/>
<path fill="#c7df66" stroke="#c7df66" d="M2.160042484781725 18.93146659147428 L2.3373462025631473 18.566677836233733 L2.337346202563148 23.51287072963475 L2.1600424847817243 23.877659484875295 z"/>
<path fill="#c7df66" stroke="#c7df66" d="M14.119151626531048 9.41634164401501 L14.615987457306078 9.257560089970593 L14.615987457306078 14.203752983371608 L14.119151626531048 14.362534537416025 z"/>
<path fill="#c7df66" stroke="#c7df66" d="M12.280654722266963 15.957060188886908 L11.531293929606926 15.815236302133199 L11.867966418435135 14.537434478590761 L12.639205862756922 14.596220451889353 L13.127266504676742 14.569249806703885 L13.622020963254679 14.486036818143239 L14.119151626531051 14.362534537416026 L14.615987457306082 14.203752983371608 L15.110205176812038 14.012320816635064 L15.110205176812038 13.253330621605224 L14.615987457306082 13.06189845486868 L14.119151626531051 12.903116900824264 L13.622020963254679 12.77961462009705 L13.127266504676742 12.696401631536405 L12.639205862756922 12.669430986350934 L11.867966418435135 12.72821695964953 L11.531293929606926 11.45041513610709 L12.280654722266963 11.30859124935338 L12.722190151546206 11.158980785224726 L13.141328036591895 10.955199740249 L13.542164998666225 10.713230320511828 L13.924760825994836 10.438427041909542 L14.288286984954714 10.133834377604423 L13.901768203323156 9.425836860863653 L13.343266856708345 9.373287892611973 L12.798950750997479 9.351863507922065 L12.272325731612279 9.363423342293645 L11.768434754458154 9.411959722325578 L11.29942950808465 9.511252936135978 L10.609942697790101 9.762749710331818 L9.635522754016131 8.647302386290699 L10.261686913278826 8.323318300955572 L10.596879726515752 8.070846037989492 L10.883506478719395 7.773600874974052 L11.133554386253216 7.445435042052424 L11.349815664950022 7.091325365406977 L11.533073761490124 6.714322289045111 L10.810885748836453 6.153150352991374 L10.263327778704397 6.247076361074948 L9.744901503114871 6.366390508934353 L9.259825877803811 6.51192943985755 L8.814842869540172 6.686124808024035 L8.42832429011014 6.898714687068797 L7.914031207724149 7.309627532919672 L6.436211826806919 6.519346053155022 L6.854468860727513 6.05707678887304 L7.037979941120132 5.735926236707972 L7.153333216038961 5.385457450554182 L7.218782937488465 5.015518579737475 L7.239475405350791 4.630035361977657 L7.217699735718023 4.231651422753756 L6.257630782619268 3.8932164505437306 L5.795110130345123 4.120880555825532 L5.37272277535234 4.364761863093281 L4.994829741355375 4.624560995031947 L4.668959367968633 4.900820165157882 L4.417216367698332 5.197918207518205 L4.147679536518839 5.71261299552877 L2.3744870661578785 5.355108630215927 L2.5287930374494914 4.817181431670547 L2.53614567606819 4.470810328099308 L2.464981151733447 4.114502482215081 L2.337346202563148 3.752780708605539 L2.1600424847817252 3.3879919533649954 L1.9365531295624647 3.0220171026753553 L0.8685794019126244 2.9515657731852687 L0.553341047497439 3.282002218393325 L0.2838022915149314 3.6173139878857414 L0.06387756999327121 3.956108192919914 L-0.09913559640882785 4.296967971850628 L-0.18238892693228648 4.638332112689108 L-0.17125962528271077 5.187172627378425 L-2.019175026442701 5.308026537564075 L-2.1503910554131838 4.76703971062963 L-2.3206518540714605 4.442255427169734 L-2.569190762065186 4.128311208012229 L-2.87314216252927 3.82377857023115 L-3.2249651654939973 3.529103941465777 L-3.620450867212777 3.2451489429694447 L-4.65208586619307 3.452914959221646 L-4.776997198399836 3.8416752606740046 L-4.856812468017172 4.223279631494466 L-4.888594720204749 4.595427311031768 L-4.866265404722383 4.954928985995422 L-4.769322711358775 5.294479161143064 L-4.478300487522846 5.803281837178756 L-6.143916861943591 6.391086508288425 L-6.543179116275908 5.9204823013023375 L-6.86814882841244 5.661404045638887 L-7.260530059157821 5.432495613924495 L-7.699741641849545 5.226564105444102 L-8.178526348616865 5.0420925681158915 L-8.692520055230204 4.878805173859566 L-9.547715611888876 5.336911462436706 L-9.465115985111309 5.731285582166505 L-9.344146913874843 6.107429762683312 L-9.183248812455355 6.46244665283331 L-8.978388786962318 6.791805376529222 L-8.714197662148443 7.08344115993771 L-8.182460697370528 7.483082067991703 L-9.425145653581197 8.449845340592141 L-10.037638463236313 8.11302951502177 L-10.472899099423984 7.954479530899209 L-10.955624576263748 7.841289926933928 L-11.470293607484647 7.761493831995467 L-12.010912912866516 7.711822126809061 L-12.573553656988762 7.690902372377169 L-13.13723833921158 8.336632817570397 L-12.858942190792238 8.683284258816066 L-12.55416975252531 9.003130952435736 L-12.22294536741812 9.293072536047411 L-11.86382066255348 9.547853323933094 L-11.468620990684634 9.752295249313411 L-10.768810181679939 9.989083714957937 L-11.42853372523386 11.194734669470115 L-12.1712166490725 11.036295395205135 L-12.65793336882667 10.999101731941847 L-13.165889473370866 11.016311720857008 L-13.686683027772276 11.0728095695482 L-14.21638288738234 11.16401984499992 L-14.752020436307482 11.287662223319847 L-14.949862769157892 12.03362953028483 L-14.514024629231114 12.28628223145883 L-14.067102421483934 12.507186260096564 L-13.610694361101869 12.69345482488846 L-13.146119717578118 12.839815246731117 L-12.673463615199283 12.930024666160588 L-11.900133776097613 12.972909314091709 L-11.900133776097613 14.29274212414858 L-12.673463615199283 14.335626772079701 L-13.146119717578118 14.425836191509172 L-13.610694361101869 14.572196613351826 L-14.067102421483934 14.758465178143723 L-14.514024629231114 14.97936920678146 L-14.949862769157892 15.23202190795546 L-14.752020436307482 15.977989214920441 L-14.21638288738234 16.101631593240366 L-13.686683027772276 16.19284186869209 L-13.165889473370866 16.24933971738328 L-12.65793336882667 16.26654970629844 L-12.1712166490725 16.229356043035153 L-11.42853372523386 16.070916768770175 L-10.768810181679939 17.27656772328235 L-11.468620990684634 17.513356188926878 L-11.86382066255348 17.717798114307197 L-12.22294536741812 17.972578902192875 L-12.55416975252531 18.262520485804554 L-12.858942190792238 18.582367179424224 L-13.13723833921158 18.929018620669893 L-12.573553656988762 19.57474906586312 L-12.010912912866516 19.55382931143123 L-11.470293607484647 19.504157606244824 L-10.955624576263748 19.424361511306362 L-10.472899099423984 19.31117190734108 L-10.037638463236313 19.15262192321852 L-9.425145653581197 18.815806097648146 L-8.182460697370528 19.782569370248588 L-8.714197662148443 20.18221027830258 L-8.978388786962318 20.47384606171107 L-9.183248812455355 20.80320478540698 L-9.344146913874843 21.158221675556977 L-9.465115985111309 21.534365856073784 L-9.547715611888876 21.928739975803584 L-8.692520055230204 22.386846264380722 L-8.178526348616865 22.2235588701244 L-7.699741641849545 22.03908733279619 L-7.260530059157821 21.833155824315796 L-6.86814882841244 21.604247392601405 L-6.543179116275908 21.34516913693795 L-6.143916861943591 20.874564929951863 L-4.478300487522846 21.462369601061535 L-4.769322711358775 21.971172277097224 L-4.866265404722383 22.310722452244867 L-4.888594720204749 22.67022412720852 L-4.856812468017172 23.042371806745823 L-4.776997198399836 23.423976177566285 L-4.65208586619307 23.81273647901864 L-3.620450867212777 24.020502495270843 L-3.2249651654939973 23.736547496774513 L-2.87314216252927 23.441872868009142 L-2.569190762065186 23.137340230228062 L-2.3206518540714605 22.823396011070557 L-2.1503910554131838 22.49861172761066 L-2.019175026442701 21.957624900676212 L-0.17125962528271077 22.078478810861867 L-0.18238892693228648 22.62731932555118 L-0.09913559640882785 22.968683466389663 L0.06387756999327121 23.309543245320377 L0.2838022915149314 23.648337450354546 L0.553341047497439 23.983649219846964 L0.8685794019126244 24.31408566505502 L1.9365531295624647 24.24363433556493 L2.1600424847817252 23.87765948487529 L2.337346202563148 23.512870729634752 L2.464981151733447 23.15114895602521 L2.53614567606819 22.794841110140982 L2.5287930374494914 22.448470006569742 L2.3744870661578785 21.91054280802436 L4.147679536518839 21.55303844271152 L4.417216367698332 22.067733230722087 L4.668959367968633 22.36483127308241 L4.994829741355375 22.641090443208345 L5.37272277535234 22.90088957514701 L5.795110130345123 23.144770882414758 L6.257630782619268 23.372434987696558 L7.217699735718023 23.034000015486534 L7.239475405350791 22.635616076262632 L7.218782937488465 22.250132858502813 L7.153333216038961 21.88019398768611 L7.037979941120132 21.529725201532315 L6.854468860727513 21.20857464936725 L6.436211826806919 20.746305385085268 L7.914031207724149 19.956023905320617 L8.42832429011014 20.36693675117149 L8.814842869540172 20.579526630216254 L9.259825877803811 20.753721998382737 L9.744901503114871 20.899260929305935 L10.263327778704397 21.01857507716534 L10.810885748836453 21.112501085248915 L11.533073761490124 20.55132914919518 L11.349815664950022 20.174326072833313 L11.133554386253216 19.820216396187867 L10.883506478719395 19.49205056326624 L10.596879726515752 19.194805400250797 L10.261686913278826 18.942333137284717 L9.635522754016131 18.61834905194959 L10.609942697790101 17.502901727908473 L11.29942950808465 17.754398502104312 L11.768434754458154 17.85369171591471 L12.272325731612279 17.902228095946644 L12.798950750997479 17.91378793031822 L13.343266856708345 17.892363545628317 L13.901768203323156 17.839814577376636 L14.288286984954714 17.131817060635864 L13.924760825994836 16.82722439633075 L13.542164998666225 16.55242111772846 L13.141328036591895 16.31045169799129 L12.722190151546206 16.106670653015563 z"/>
<path fill="#c7df66" stroke="#c7df66" d="M11.531293929606926 10.869043408732184 L12.280654722266963 11.010867295485895 L12.722190151546206 11.160477759614547 L13.141328036591895 11.364258804590275 L13.542164998666225 11.606228224327447 L13.924760825994836 11.881031502929734 L14.288286984954714 12.18562416723485 L13.901768203323156 12.893621683975622 L13.343266856708345 12.946170652227302 L12.798950750997479 12.96759503691721 L12.272325731612279 12.95603520254563 L11.768434754458154 12.907498822513695 L11.29942950808465 12.808205608703297 L10.609942697790101 12.556708834507457 L9.635522754016131 13.672156158548576 L10.261686913278826 13.996140243883701 L10.596879726515752 14.248612506849781 L10.883506478719395 14.545857669865223 L11.133554386253216 14.87402350278685 L11.349815664950022 15.228133179432298 L11.533073761490124 15.605136255794163 L10.810885748836453 16.1663081918479 L10.263327778704397 16.072382183764326 L9.744901503114871 15.953068035904922 L9.259825877803811 15.807529104981725 L8.814842869540172 15.63333373681524 L8.42832429011014 15.420743857770477 L7.914031207724149 15.009831011919603 L6.436211826806919 15.800112491684255 L6.854468860727513 16.26238175596623 L7.037979941120132 16.583532308131304 L7.153333216038961 16.934001094285094 L7.218782937488465 17.303939965101797 L7.239475405350791 17.689423182861617 L7.217699735718023 18.08780712208552 L6.257630782619268 18.426242094295546 L5.795110130345123 18.198577989013742 L5.37272277535234 17.954696681745993 L4.994829741355375 17.694897549807326 L4.668959367968633 17.41863837968139 L4.417216367698332 17.12154033732107 L4.147679536518839 16.606845549310503 L2.3744870661578785 16.964349914623348 L2.5287930374494914 17.502277113168727 L2.53614567606819 17.848648216739964 L2.464981151733447 18.204956062624195 L2.337346202563148 18.566677836233733 L2.1600424847817252 18.93146659147428 L1.9365531295624647 19.29744144216392 L0.8685794019126244 19.367892771654006 L0.553341047497439 19.037456326445948 L0.2838022915149314 18.70214455695353 L0.06387756999327121 18.363350351919358 L-0.09913559640882785 18.022490572988648 L-0.18238892693228648 17.681126432150165 L-0.17125962528271077 17.132285917460848 L-2.019175026442701 17.0114320072752 L-2.1503910554131838 17.552418834209643 L-2.3206518540714605 17.87720311766954 L-2.569190762065186 18.191147336827047 L-2.87314216252927 18.495679974608123 L-3.2249651654939973 18.790354603373498 L-3.620450867212777 19.074309601869828 L-4.65208586619307 18.86654358561763 L-4.776997198399836 18.47778328416527 L-4.856812468017172 18.096178913344808 L-4.888594720204749 17.724031233807505 L-4.866265404722383 17.364529558843852 L-4.769322711358775 17.02497938369621 L-4.478300487522846 16.516176707660517 L-6.143916861943591 15.92837203655085 L-6.543179116275908 16.398976243536936 L-6.86814882841244 16.658054499200386 L-7.260530059157821 16.88696293091478 L-7.699741641849545 17.09289443939517 L-8.178526348616865 17.277365976723384 L-8.692520055230204 17.44065337097971 L-9.547715611888876 16.98254708240257 L-9.465115985111309 16.58817296267277 L-9.344146913874843 16.21202878215596 L-9.183248812455355 15.857011892005964 L-8.978388786962318 15.527653168310053 L-8.714197662148443 15.236017384901567 L-8.182460697370528 14.83637647684757 L-9.425145653581197 13.869613204247134 L-10.037638463236313 14.206429029817503 L-10.472899099423984 14.364979013940063 L-10.955624576263748 14.478168617905347 L-11.470293607484647 14.557964712843807 L-12.010912912866516 14.607636418030214 L-12.573553656988762 14.628556172462106 L-13.13723833921158 13.982825727268878 L-12.858942190792238 13.636174286023211 L-12.55416975252531 13.316327592403539 L-12.22294536741812 13.026386008791864 L-11.86382066255348 12.771605220906181 L-11.468620990684634 12.567163295525862 L-10.768810181679939 12.330374829881336 L-11.42853372523386 11.12472387536916 L-12.1712166490725 11.28316314963414 L-12.65793336882667 11.320356812897428 L-13.165889473370866 11.303146823982267 L-13.686683027772276 11.246648975291075 L-14.21638288738234 11.155438699839355 L-14.752020436307482 11.031796321519428 L-14.949862769157892 10.285829014554444 L-14.514024629231114 10.033176313380444 L-14.067102421483934 9.81227228474271 L-13.610694361101869 9.626003719950813 L-13.146119717578118 9.479643298108156 L-12.673463615199283 9.389433878678688 L-11.900133776097613 9.346549230747566 L-11.900133776097613 8.026716420690693 L-12.673463615199283 7.983831772759572 L-13.146119717578118 7.8936223533301035 L-13.610694361101869 7.747261931487447 L-14.067102421483934 7.56099336669555 L-14.514024629231114 7.340089338057816 L-14.949862769157892 7.087436636883816 L-14.752020436307482 6.341469329918833 L-14.21638288738234 6.217826951598906 L-13.686683027772276 6.126616676147186 L-13.165889473370866 6.0701188274559925 L-12.65793336882667 6.052908838540832 L-12.1712166490725 6.09010250180412 L-11.42853372523386 6.2485417760691 L-10.768810181679939 5.042890821556924 L-11.468620990684634 4.806102355912397 L-11.86382066255348 4.601660430532079 L-12.22294536741812 4.346879642646398 L-12.55416975252531 4.056938059034722 L-12.858942190792238 3.73709136541505 L-13.13723833921158 3.390439924169382 L-12.573553656988762 2.744709478976154 L-12.010912912866516 2.765629233408046 L-11.470293607484647 2.815300938594452 L-10.955624576263748 2.8950970335329136 L-10.472899099423984 3.008286637498195 L-10.037638463236313 3.1668366216207557 L-9.425145653581197 3.503652447191127 L-8.182460697370528 2.536889174590689 L-8.714197662148443 2.1372482665366945 L-8.978388786962318 1.8456124831282075 L-9.183248812455355 1.5162537594322956 L-9.344146913874843 1.161236869282297 L-9.465115985111309 0.7850926887654909 L-9.547715611888876 0.3907185690356921 L-8.692520055230204 -0.06738771954144905 L-8.178526348616865 0.09589967471487694 L-7.699741641849545 0.28037121204308774 L-7.260530059157821 0.48630272052348006 L-6.86814882841244 0.7152111522378725 L-6.543179116275908 0.9742894079013239 L-6.143916861943591 1.44489361488741 L-4.478300487522846 0.857088943777741 L-4.769322711358775 0.3482862677420495 L-4.866265404722383 0.00873609259440688 L-4.888594720204749 -0.3507655823692461 L-4.856812468017172 -0.722913261906548 L-4.776997198399836 -1.1045176327270099 L-4.65208586619307 -1.4932779341793685 L-3.620450867212777 -1.7010439504315695 L-3.2249651654939973 -1.4170889519352374 L-2.87314216252927 -1.1224143231698644 L-2.569190762065186 -0.8178816853887858 L-2.3206518540714605 -0.5039374662312807 L-2.1503910554131838 -0.17915318277138428 L-2.019175026442701 0.3618336441630609 L-0.17125962528271077 0.24097973397741027 L-0.18238892693228648 -0.3078607807119064 L-0.09913559640882785 -0.6492249215503869 L0.06387756999327121 -0.9900847004811006 L0.2838022915149314 -1.3288789055152732 L0.553341047497439 -1.6641906750076898 L0.8685794019126244 -1.9946271202157462 L1.9365531295624647 -1.9241757907256591 L2.1600424847817252 -1.558200940036019 L2.337346202563148 -1.1934121847954755 L2.464981151733447 -0.8316904111859338 L2.53614567606819 -0.4753825653017063 L2.5287930374494914 -0.1290114617304676 L2.3744870661578785 0.4089157368149129 L4.147679536518839 0.7664201021277548 L4.417216367698332 0.25172531411718985 L4.668959367968633 -0.04537272824313176 L4.994829741355375 -0.3216318983690674 L5.37272277535234 -0.5814310303077335 L5.795110130345123 -0.8253123375754827 L6.257630782619268 -1.0529764428572843 L7.217699735718023 -0.7145414706472586 L7.239475405350791 -0.31615753142335684 L7.218782937488465 0.06932568633646113 L7.153333216038961 0.43926455715316737 L7.037979941120132 0.7897333433069577 L6.854468860727513 1.110883895472026 L6.436211826806919 1.573153159754007 L7.914031207724149 2.3634346395186574 L8.42832429011014 1.9525217936677834 L8.814842869540172 1.7399319146230203 L9.259825877803811 1.5657365464565356 L9.744901503114871 1.4201976155333385 L10.263327778704397 1.3008834676739331 L10.810885748836453 1.206957459590359 L11.533073761490124 1.768129395644096 L11.349815664950022 2.145132472005963 L11.133554386253216 2.4992421486514096 L10.883506478719395 2.827407981573038 L10.596879726515752 3.124653144588478 L10.261686913278826 3.3771254075545585 L9.635522754016131 3.701109492889684 L10.609942697790101 4.816556816930803 L11.29942950808465 4.565060042734963 L11.768434754458154 4.465766828924564 L12.272325731612279 4.41723044889263 L12.798950750997479 4.405670614521051 L13.343266856708345 4.427094999210958 L13.901768203323156 4.479643967462637 L14.288286984954714 5.18764148420341 L13.924760825994836 5.492234148508526 L13.542164998666225 5.767037427110814 L13.141328036591895 6.009006846847986 L12.722190151546206 6.212787891823712 L12.280654722266963 6.362398355952365 L11.531293929606926 6.504222242706076 L11.867966418435135 7.782024066248515 L12.639205862756922 7.723238092949922 L13.127266504676742 7.750208738135391 L13.622020963254679 7.833421726696036 L14.119151626531051 7.9569240074232495 L14.615987457306082 8.115705561467665 L15.110205176812038 8.30713772820421 L15.110205176812038 9.066127923234049 L14.615987457306082 9.257560089970594 L14.119151626531051 9.416341644015011 L13.622020963254679 9.539843924742224 L13.127266504676742 9.62305691330287 L12.639205862756922 9.650027558488338 L11.867966418435135 9.591241585189746 z"/>
<path fill="#bababa" stroke="#bababa" d="M7.5 9.754145516074455 L7.5 13.993739424703897 L-7.5 13.993739424703897 L-7.5 9.754145516074455 z"/>
<path fill="#bababa" stroke="#bababa" d="M7.5 -0.8600676818950818 L7.5 3.3795262267343595 L7.5 13.993739424703902 L7.5 9.75414551607446 z"/>
<path fill="#bababa" stroke="#bababa" d="M-7.5 -0.8600676818950823 L-7.5 3.379526226734358 L7.5 3.379526226734358 L7.5 -0.8600676818950823 z"/>
<path fill="#bababa" stroke="#bababa" d="M-7.5 9.75414551607446 L-7.5 13.993739424703902 L-7.5 3.3795262267343595 L-7.5 -0.8600676818950818 z"/>
<path fill="#bababa" stroke="#bababa" d="M7.5 9.75414551607446 L-7.5 9.75414551607446 L-7.5 -0.8600676818950816 L7.5 -0.8600676818950816 z"/>
<path fill="#bababa" stroke="#bababa" d="M7.5 13.993739424703902 L7.5 3.3795262267343595 L-7.5 3.3795262267343595 L-7.5 13.993739424703902 z"/>
</svg>